<?xml version="1.0" standalone="no"?>
<!DOCTYPE svg PUBLIC "-//W3C//DTD SVG 20010904//EN"
 "http://www.w3.org/TR/2001/REC-SVG-20010904/DTD/svg10.dtd">
<svg version="1.0" xmlns="http://www.w3.org/2000/svg"
 width="256.000000pt" height="256.000000pt" viewBox="0 0 256.000000 256.000000"
 preserveAspectRatio="xMidYMid meet">

<g transform="translate(0.000000,256.000000) scale(0.100000,-0.100000)"
fill="#000000" stroke="none">
<path d="M432 908 l-2 -48 -202 -2 -203 -3 -3 -162 c-4 -258 32 -368 168 -503
83 -84 163 -129 271 -155 96 -22 1542 -22 1638 0 108 26 188 71 271 155 136
135 172 245 168 503 l-3 162 -88 0 c-48 0 -87 2 -87 5 0 4 5 11 12 18 6 6 9
14 6 17 -3 3 -15 -9 -27 -28 -46 -76 -150 -129 -251 -131 -36 0 -77 3 -91 7
-24 6 -42 -11 -227 -213 -165 -179 -209 -221 -240 -231 -101 -30 -189 86 -134
176 11 17 98 117 195 222 98 106 177 196 177 200 0 4 -13 -5 -28 -20 -43 -42
-61 -33 -22 11 19 20 -53 -50 -161 -156 l-196 -193 -389 3 -389 3 -48 28 c-26
15 -60 47 -75 69 -25 39 -27 51 -33 177 -3 75 -6 115 -7 89z"/>
<path d="M1791 924 c0 -11 3 -14 6 -6 3 7 2 16 -1 19 -3 4 -6 -2 -5 -13z"/>
<path d="M1481 437 c-15 -19 -5 -44 21 -53 26 -8 41 7 36 37 -4 28 -39 37 -57
16z"/>
</g>
</svg>
