<?xml version="1.0" standalone="no"?>
<!DOCTYPE svg PUBLIC "-//W3C//DTD SVG 20010904//EN"
 "http://www.w3.org/TR/2001/REC-SVG-20010904/DTD/svg10.dtd">
<svg version="1.0" xmlns="http://www.w3.org/2000/svg"
 width="85.000000pt" height="61.000000pt" viewBox="0 0 85.000000 61.000000"
 preserveAspectRatio="xMidYMid meet">

<g transform="translate(0.000000,61.000000) scale(0.100000,-0.100000)"
fill="#000000" stroke="none">
<path d="M499 414 c-13 -14 -31 -23 -41 -21 -18 5 -28 -11 -28 -44 0 -17 6
-20 32 -17 25 2 32 8 33 26 1 12 11 32 23 43 22 20 29 39 14 39 -5 0 -19 -12
-33 -26z"/>
<path d="M314 264 c-7 -3 -10 -13 -7 -22 2 -10 -7 -28 -21 -41 -14 -14 -26
-28 -26 -33 0 -15 19 -8 39 14 11 12 31 22 43 23 18 1 24 8 26 33 3 28 0 32
-20 31 -13 0 -28 -3 -34 -5z"/>
</g>
</svg>
